<?xml version="1.0" encoding="UTF-8"?>
<!-- Generator: Adobe Illustrator 21.1.0, SVG Export Plug-In . SVG Version: 6.00 Build 0)  -->
<svg version="1.1" id="Layer_1" xmlns="http://www.w3.org/2000/svg" xmlns:xlink="http://www.w3.org/1999/xlink" x="0px" y="0px" viewBox="0 0 400 100" style="enable-background:new 0 0 400 100;" xml:space="preserve" class="mozwebext">
<style type="text/css">
	.st0{fill:#519DE8;}
	.st1{fill:#354378;}
</style>
<g>
	<path class="st0" d="M133.3,87.6V12.5h8.5v75.1H133.3z"/>
	<path class="st0" d="M152.1,23.8c-1.1-1.1-1.7-2.4-1.7-4c0-1.6,0.6-2.9,1.7-4c1.1-1.1,2.4-1.7,4-1.7c1.6,0,2.9,0.6,4,1.7   c1.1,1.1,1.7,2.5,1.7,4c0,1.6-0.6,2.9-1.7,4c-1.1,1.1-2.4,1.6-4,1.6C154.6,25.4,153.2,24.9,152.1,23.8z M151.9,87.6V33.2h8.5v54.4   H151.9z"/>
	<path class="st0" d="M170.6,87.6V33.2h8.5V41c2.1-2.6,4.9-4.7,8.4-6.5c3.5-1.8,7.2-2.7,11.1-2.7c11.5,0,17.3,5.9,17.3,17.6v38.2   h-8.5V52c0-4.6-1-7.8-3.1-9.8c-2.1-1.9-5.1-2.9-9.1-2.9c-3.1,0-6.2,0.8-9.1,2.5c-2.9,1.7-5.3,3.7-7,6v39.8H170.6z"/>
	<path class="st0" d="M226.1,87.6V12.5h8.5v49.7l28.6-28.9h10.7l-24.1,24.6L274,87.6h-10.8l-19.5-24.4l-9.1,8.9v15.6H226.1z"/>
	<path class="st0" d="M277.3,87.6V12.5h8.5v49.7l28.6-28.9h10.7L301,57.8l24.2,29.7h-10.8l-19.5-24.4l-9.1,8.9v15.6H277.3z"/>
	<path class="st0" d="M328.5,87.6V12.5h8.5v75.1H328.5z"/>
	<path class="st0" d="M343.9,60.3c0-8,2.5-14.7,7.6-20.2c5.1-5.5,11.5-8.3,19.1-8.3c8.1,0,14.5,2.8,19.2,8.3   c4.7,5.5,7.1,12.5,7.1,20.9v2.1h-44.1c0.4,5.3,2.3,9.8,5.8,13.4c3.5,3.6,8.1,5.4,13.7,5.4c6.8,0,12.4-2.3,17-7l4.1,5.5   c-5.8,5.6-13,8.5-21.7,8.5c-8.2,0-14.8-2.7-20-8C346.5,75.7,343.9,68.8,343.9,60.3z M352.7,56.8h35.7c-0.1-4.6-1.7-8.7-4.7-12.5   c-3.1-3.7-7.5-5.6-13.2-5.6c-5.4,0-9.7,1.8-12.8,5.5C354.6,48,353,52.2,352.7,56.8z"/>
</g>
<g>
	<g>
		<path class="st1" d="M93.1,76c10.4-10.4,10.4-27.4,0-37.9c-10.4-10.4-27.4-10.4-37.9,0l-1,1l5.8,5.8l1-1c7.3-7.3,19.1-7.3,26.3,0    c7.3,7.3,7.3,19.1,0,26.3c-7.3,7.3-19.1,7.3-26.3,0L41.1,50.3l-5.8,5.8L55.2,76C65.6,86.4,82.6,86.4,93.1,76z"/>
	</g>
	<g>
		<g>
			<path class="st0" d="M47.7,76c0,0,0.9-0.9,0.9-0.9l-5.8-5.8l-0.9,0.9c-3.5,3.5-8.2,5.4-13.1,5.4c-5,0-9.6-1.9-13.2-5.5     c-3.5-3.5-5.5-8.2-5.5-13.2s1.9-9.6,5.5-13.2c7.3-7.3,19.1-7.3,26.3,0l21.4,21.4l5.8-5.8L47.7,38.1c-10.4-10.4-27.4-10.4-37.9,0     C4.8,43.2,2,49.9,2,57C2,64.2,4.8,70.9,9.9,76c5.1,5.1,11.8,7.8,18.9,7.8S42.7,81,47.7,76z"/>
		</g>
	</g>
</g>
</svg>