<?xml version="1.0" encoding="iso-8859-1"?>
<!-- Generator: Adobe Illustrator 19.1.0, SVG Export Plug-In . SVG Version: 6.00 Build 0)  -->
<svg version="1.1" id="Capa_1" xmlns="http://www.w3.org/2000/svg" xmlns:xlink="http://www.w3.org/1999/xlink" x="0px" y="0px"
	 viewBox="0 -400 400 400" xml:space="preserve">
<g transform="scale(1,-1)" >
	<path style="fill:white;" d="M331.322,341.31c4.985-0.078,9.911-2.163,13.438-5.688l55-55c3.601-3.599,5.697-8.659,5.697-13.75
		s-2.096-10.151-5.697-13.75L216.478,69.841c-3.599-3.601-8.659-5.697-13.75-5.697s-10.151,2.096-13.75,5.697L5.697,253.123
		C2.096,256.722,0,261.782,0,266.873s2.096,10.151,5.697,13.75l55,55c3.598,3.591,8.651,5.681,13.734,5.681
		s10.136-2.09,13.734-5.681l114.562-114.562L317.29,335.623C320.958,339.287,326.139,341.387,331.322,341.31z"/>
</g>
</svg>
