<?xml version="1.0" encoding="utf-8"?>
<!-- Generator: Adobe Illustrator 21.1.0, SVG Export Plug-In . SVG Version: 6.00 Build 0)  -->
<svg version="1.1" id="Layer_1" xmlns="http://www.w3.org/2000/svg" xmlns:xlink="http://www.w3.org/1999/xlink" x="0px" y="0px"
	 viewBox="0 0 200 200" style="enable-background:new 0 0 200 200;" xml:space="preserve">
<style type="text/css">
	.st0{fill:#354378;}
</style>
<g>
	<path class="st0" d="M70.5,154.6h59.3v-16.9H70.5V154.6z M74.4,141.5h51.3v9.1H74.4V141.5z"/>
	<path class="st0" d="M99.9,14.8c-47.1,0-85.1,38-85.1,85.1S53.1,185,100.2,185s85.4-38.3,85.4-85.1S147,14.8,99.9,14.8z
		 M99.9,181.4c-44.8,0-81.5-36.4-81.5-81.5s36.4-81.5,81.5-81.5c44.8,0,81.5,36.4,81.5,81.5S144.7,181.4,99.9,181.4z"/>
	<path class="st0" d="M99.9,26.5c-40.3,0-73.4,33.1-73.4,73.4s33.1,73.4,73.4,73.4s73.4-33.1,73.4-73.4S140.2,26.5,99.9,26.5z
		 M99.9,169.4c-25,0-46.8-13.3-59.1-33.1l8.6-4.9l-1.8-3.4l-8.8,4.9c-4.9-9.4-8.1-20-8.3-31.2h9.9v-3.9h-9.9
		c0.3-11.2,3.4-21.9,8.3-31.2l8.6,4.9l2.1-3.4l-8.3-4.9c5.7-9.4,13.5-16.9,22.9-22.6l4.9,8.3l3.4-2.1l-5.2-8.1
		c9.4-4.9,19.8-8.1,31.2-8.3V40h3.9v-9.6c11.2,0.3,21.6,3.4,31,8.3l-4.7,8.1l3.4,2.1l4.7-8.1c9.1,5.7,16.9,13.5,22.6,22.6l-8.1,4.7
		l2.1,3.4l8.1-4.7c4.9,9.4,8.1,19.8,8.3,31h-9.4v3.9h9.4c-0.3,11.2-3.1,21.6-8.3,31l-8.1-4.7l-2.1,3.4l8.1,4.7
		C147,156.1,124.9,169.4,99.9,169.4z"/>
	<path class="st0" d="M99.9,54.1v-3.9c-27.3,0-49.7,22.4-49.7,49.7h3.9C54.1,74.7,74.7,54.1,99.9,54.1z"/>
	<path class="st0" d="M99.9,63.5v-3.9c-22.4,0-40.3,18.2-40.3,40.3h3.9C63.5,79.9,79.9,63.5,99.9,63.5z"/>
	<path class="st0" d="M94.4,92.1l-0.3,0.3l0,0c-2.3,1.8-3.6,4.4-3.6,7.5c0,5.2,4.2,9.6,9.6,9.6c2.9,0,5.5-1.3,7.3-3.4l0,0l33.8-46.3
		l-46.6,32C94.7,92.1,94.4,92.1,94.4,92.1z M99.9,105.6c-3.1,0-5.7-2.6-5.7-5.7c0-1.8,0.8-3.4,2.3-4.4l0.3-0.3
		c0.8-0.5,1.8-0.8,2.9-0.8c3.1,0,5.7,2.6,5.7,5.7c0,1-0.3,2.3-1,3.1l0,0C103.5,104.6,101.7,105.6,99.9,105.6z M109,97
		c-0.8-2.9-3.1-5.2-6-6l21.1-14.8L109,97z"/>
</g>
</svg>
